<?xml version="1.0" encoding="utf-8"?>
<!-- Generator: Adobe Illustrator 19.2.1, SVG Export Plug-In . SVG Version: 6.00 Build 0)  -->
<svg version="1.1" id="Layer_1" xmlns="http://www.w3.org/2000/svg" xmlns:xlink="http://www.w3.org/1999/xlink" x="0px" y="0px"
	 viewBox="0 0 221.7 139.5" style="enable-background:new 0 0 221.7 139.5;" xml:space="preserve">
<g>
	<g>
		<path d="M38.7,54.5c0-8.6,5.1-14.6,13.5-18.2L52,36c-7.5-3.6-10.8-9.4-10.8-15.3c0-10.8,9.1-18.1,21-18.1
			C75.4,2.7,82,10.9,82,19.4c0,5.7-2.8,11.9-11.2,15.9v0.3c8.5,3.3,13.7,9.3,13.7,17.6c0,11.8-10.1,19.8-23.1,19.8
			C47.2,72.9,38.7,64.4,38.7,54.5z M75.2,54.1c0-8.3-5.7-12.2-14.9-14.8c-7.9,2.3-12.2,7.5-12.2,14c-0.3,6.9,4.9,13,13.6,13
			C69.9,66.2,75.2,61.1,75.2,54.1z M49.9,20.1c0,6.8,5.1,10.5,13,12.5c5.9-2,10.3-6.2,10.3-12.3c0-5.4-3.2-11.1-11.5-11.1
			C54.1,9.3,49.9,14.3,49.9,20.1z"/>
	</g>
	<g>
		<path d="M176.2,67.2H163l-4.3-8.8h-20.1l-4.3,8.8h-13.1l27.5-57L176.2,67.2z M153.2,46.8l-4.4-9.2l-4.5,9.2H153.2z"/>
		<path d="M222.2,67.1h-41.3V10.3h11.9v45.3h29.4V67.1z"/>
	</g>
	<g>
		<path d="M45,67.2H32.4l-9.8-21.8h-6.1v21.7H4.8V10.3h20.7c0.3,0,0.7,0,1.2,0.1c0.5,0.1,1,0.2,1.5,0.3c0.5,0.1,1,0.3,1.5,0.4
			c0.5,0.1,0.8,0.2,1.1,0.3c1.2,0.5,2.3,1.1,3.4,1.8c1.1,0.7,2.2,1.6,3.3,2.8c1.2,1.3,2.2,2.7,2.9,4.2c0.7,1.4,1.2,2.8,1.4,4.2
			c0.3,1.2,0.4,2.4,0.4,3.5c0,2.5-0.6,5.1-1.8,7.8c-1.2,2.7-3.3,5-6.4,7.1L45,67.2z M30.7,27.9c0-1-0.3-2.1-0.8-3.1
			c-0.5-1.1-1.5-1.9-3-2.5c-0.3-0.1-0.6-0.2-1-0.3c-0.4-0.1-0.6-0.1-0.7-0.1h-8.8v12.1h8.8c0.1,0,0.3-0.1,0.7-0.2
			c0.4-0.1,0.7-0.2,1-0.3c1.4-0.6,2.4-1.4,3-2.4C30.4,29.9,30.7,28.9,30.7,27.9z"/>
	</g>
	<g>
		<path d="M135.3,10l-21.6,36.5v20.7H102V46.6L80.3,10h13.6l13.9,23.3L121.7,10H135.3z"/>
	</g>
	<g>
		<path d="M60.2,135.1H48.6V98.9l-16,23.3L16.5,98.9v36.3H4.8V78.3h11.5l16.1,23.3l16.2-23.3h11.5V135.1z"/>
	</g>
	<g>
		<path d="M124.4,106.8c0,4-0.7,7.6-2.2,11.1c-1.5,3.4-3.5,6.4-6.1,9c-2.6,2.5-5.6,4.6-9,6c-3.4,1.5-7.1,2.2-11.1,2.2
			s-7.7-0.7-11.1-2.2c-3.4-1.5-6.5-3.5-9.1-6.1c-2.6-2.6-4.6-5.6-6.1-9c-1.5-3.4-2.2-7.1-2.2-11.1c0-3.9,0.7-7.6,2.2-11
			c1.5-3.5,3.5-6.5,6.1-9.1c2.6-2.6,5.6-4.6,9.1-6.1C88.3,79,92,78.2,96,78.2c4,0,7.7,0.8,11.2,2.3c3.4,1.5,6.4,3.6,9,6.2
			c2.6,2.6,4.6,5.6,6.1,9.1C123.7,99.2,124.4,102.9,124.4,106.8z M112.8,106.8c0-1.5-0.2-3-0.6-4.6c-0.4-1.6-1.1-3.1-2-4.5
			c-0.9-1.4-2.1-2.8-3.5-4c-1.4-1.2-3.2-2.2-5.2-3c-0.4-0.2-0.9-0.3-1.5-0.3c-0.6-0.1-1.1-0.2-1.5-0.3c-0.5-0.1-1-0.2-1.6-0.2
			c-0.6-0.1-1-0.1-1.1-0.1c-1.2,0-2.4,0.2-3.7,0.5c-1.3,0.3-2.6,0.8-3.8,1.5c-1.3,0.7-2.5,1.5-3.7,2.5c-1.2,1-2.2,2.3-3,3.7
			c-1.1,1.8-1.8,3.6-2.1,5.3c-0.1,0.6-0.2,1.1-0.3,1.7c-0.1,0.6-0.1,1.2-0.1,1.8c0,2.3,0.4,4.4,1.3,6.4c0.9,2,2.1,3.8,3.6,5.3
			c1.5,1.5,3.3,2.8,5.4,3.7c2.1,0.9,4.2,1.3,6.5,1.3c2.3,0,4.4-0.4,6.5-1.3c2.1-0.9,3.8-2.1,5.4-3.6c1.5-1.5,2.8-3.3,3.7-5.3
			C112.3,111.4,112.8,109.2,112.8,106.8z"/>
	</g>
	<g>
		<path d="M176.8,103.7c0,2.6-0.4,5.2-1.2,7.9c-0.8,2.7-2,5.3-3.7,7.8c-1.6,2.5-3.7,4.7-6.3,6.7c-2.5,2-5.6,3.6-9.1,4.7
			c-0.3,0.1-0.7,0.1-1.2,0.3c-0.5,0.1-1.1,0.3-1.7,0.4c-0.6,0.1-1.2,0.2-1.8,0.3c-0.6,0.1-1.1,0.2-1.4,0.2h-21.3V75h21.3
			c0.5,0,1.1,0.1,1.9,0.3c0.8,0.2,1.6,0.4,2.5,0.6c0.8,0.2,1.6,0.4,2.2,0.6c0.7,0.2,1.1,0.3,1.3,0.4c1.2,0.4,2.4,1,3.8,1.7
			c1.4,0.7,2.7,1.6,4,2.7c1.3,1,2.5,2.2,3.7,3.5c1.2,1.3,2.1,2.7,3,4.2c0.2,0.4,0.4,0.7,0.7,1.2c0.2,0.4,0.4,0.8,0.7,1.3
			c0.9,2.2,1.6,4.2,2,6.1C176.6,99.4,176.8,101.4,176.8,103.7z M165.2,103.2c0-1.4-0.2-2.8-0.7-4.3c-0.4-1.5-1.1-3-2-4.4
			c-0.9-1.4-2-2.7-3.4-3.9c-1.4-1.2-3-2.1-4.8-2.8c-0.2-0.1-0.5-0.1-0.9-0.3c-0.4-0.1-0.8-0.2-1.3-0.3c-0.5-0.1-0.9-0.2-1.3-0.3
			c-0.4-0.1-0.8-0.2-1.1-0.2h-8.9v33.8h9.1c0.5,0,1-0.1,1.7-0.2c0.7-0.2,1.2-0.3,1.5-0.4c2.3-0.7,4.2-1.6,5.8-2.8
			c1.5-1.2,2.8-2.6,3.8-4.1c1-1.5,1.7-3.1,2.1-4.7C165,106.5,165.2,104.9,165.2,103.2z"/>
	</g>
	<g>
		<path d="M221.7,131.9h-40.3V75.1h40.3v11.5h-28.6v11.1h14.2v11.5h-14.2v11.1h28.6V131.9z"/>
	</g>
	<rect x="194.7" y="97.8" width="27.1" height="11.6"/>
</g>
</svg>
